<svg width="100" height="40" viewBox="0 0 100 40" fill="none" xmlns="http://www.w3.org/2000/svg">
<path fill-rule="evenodd" clip-rule="evenodd" d="M94.5184 1.1062C95.1515 1.31912 95.7201 1.64887 96.2167 2.10674C97.3653 3.1638 97.788 4.56568 97.788 6.08626V19.0857C98.0856 19.2722 98.3604 19.4945 98.6087 19.7489C99.892 21.0566 100 22.5414 100 24.2636C100 25.8934 99.8901 27.2972 98.785 28.6049C98.4931 28.9516 98.1576 29.2493 97.7861 29.4942V31.2183C97.7861 34.7927 95.6443 36.4603 92.2021 36.5922L88.7259 36.7241C86.8323 36.7957 84.4535 36.0589 83.0945 34.7155C82.704 34.3292 82.4103 33.909 82.1942 33.4587C81.1517 35.2581 79.442 36.4904 76.9476 36.5865L63.4368 37.1009C62.4607 37.1386 61.4712 36.9973 60.5785 36.6129C58.1713 38.1467 55.3925 38.8664 52.5266 38.9757C51.7514 39.0059 50.9724 38.9889 50.199 38.9268C45.9418 38.5838 41.8534 36.8409 39.2149 33.5548C38.7695 34.3989 38.2861 35.2261 37.7421 35.9873C36.4495 37.8019 34.4914 38.955 32.2378 39.0417L28.7217 39.1755C27.1371 39.2358 25.1753 38.58 23.7594 37.5362C22.6639 38.7515 21.1646 39.4637 19.4151 39.5297L7.16858 39.9951C5.26934 40.0667 2.94362 39.3469 1.54478 38.043C0.413201 36.9879 0 35.5973 0 34.0918V8.99742C0 5.40605 2.11152 3.71588 5.58398 3.58398L19.7543 3.04509C19.7657 3.04509 19.7771 3.04321 19.7885 3.04321L23.8182 2.89058C27.2281 2.76057 29.8135 4.45828 31.0379 7.36378C31.3715 4.20579 33.5608 2.51939 36.893 2.39315C38.8946 2.31778 40.8014 2.73231 42.5281 3.68385C45.0737 2.19341 48.0458 1.61495 50.9781 1.50378C54.1245 1.38319 57.4093 1.65452 60.1937 3.22786C62.6654 1.27956 66.1227 0.137705 69.1971 0.0189979C71.9114 -0.0846355 74.891 0.205537 77.2584 1.64322C79.5254 2.59476 81.0285 4.18695 81.8909 6.23889L82.397 5.47954C83.2878 4.14173 84.1939 2.60418 85.4828 1.61118C86.783 0.606879 88.288 0.273369 89.9048 0.211189L90.6554 0.182926C92.06 0.126399 93.3697 0.28279 94.5184 1.1062Z" fill="white"/>
<path fill-rule="evenodd" clip-rule="evenodd" d="M81.4227 9.16135L83.4262 6.15221C85.3387 3.28062 86.2106 1.5735 89.956 1.43029L90.7066 1.40203C91.8856 1.35681 93.0077 1.45856 93.9478 2.21037C94.4615 2.35546 94.9429 2.60041 95.3827 3.00364C96.2754 3.82328 96.5579 4.91803 96.5579 6.08438V19.8299C96.9843 19.9957 97.3786 20.2445 97.7292 20.6006C98.7528 21.6445 98.7699 22.9144 98.7699 24.2617C98.7699 25.558 98.7357 26.7602 97.843 27.8172C97.4772 28.2506 97.0393 28.5634 96.5579 28.7744V31.2183C96.5579 34.0937 94.9714 35.2619 92.1566 35.3693L88.6804 35.5012C87.1337 35.5596 85.079 34.9491 83.9626 33.8468C83.1248 33.0196 82.9069 31.9777 82.9069 30.8546V29.5941L82.1468 29.6224C81.7734 32.5354 80.312 35.2317 76.8983 35.3618L63.3875 35.8762C62.2598 35.9195 61.2665 35.6821 60.4951 35.1846C58.194 36.8409 55.4305 37.6379 52.4773 37.7491C47.1985 37.9507 41.6771 35.9063 39.0481 31.0996C38.3809 32.526 37.6038 34.056 36.7357 35.2751C35.6666 36.7768 34.0593 37.7416 32.1885 37.8132L28.6724 37.9469C26.9836 38.011 24.6124 37.0199 23.5737 35.6745C22.7586 37.1612 21.3484 38.2258 19.3658 38.3012L7.1193 38.7666C5.55556 38.8269 3.54448 38.2258 2.38447 37.1443C1.50688 36.3246 1.22825 35.2412 1.22825 34.0842V8.99742C1.22825 6.10699 2.78252 4.91426 5.62948 4.80686L19.7998 4.26796C19.8112 4.26796 19.8226 4.26608 19.834 4.26608L23.8637 4.11346C27.23 3.98533 29.5405 5.87146 30.3139 9.10482L31.7677 15.174C31.8208 14.7255 31.8681 14.2959 31.908 13.8927C32.0975 12.0028 32.2131 10.0978 32.2207 8.20038C32.234 5.1724 33.9778 3.72907 36.9366 3.61602C38.9609 3.53876 40.845 4.01359 42.5395 5.12153C44.6662 3.69139 47.4525 2.86232 51.0235 2.72477C54.1226 2.60606 57.2387 2.88116 59.8014 4.41494C59.9947 4.49784 60.1861 4.58452 60.3738 4.67873C62.7203 2.52316 66.3065 1.35116 69.2426 1.2381C72.3151 1.12128 74.8361 1.5735 76.6936 2.73042C79.2885 3.78937 80.9299 5.84885 81.4227 9.16135Z" fill="#CC0000"/>
<path fill-rule="evenodd" clip-rule="evenodd" d="M10.9178 21.6407C12.1422 21.7123 13.7628 21.7293 14.6708 21.6935C17.5537 21.5842 17.9499 20.1163 17.9499 19.1723C17.9499 17.9947 17.6731 17.6913 16.2516 17.7441L10.9178 17.9476V10.7611L17.3964 10.5142C17.5272 10.5086 17.6504 10.4973 17.7679 10.4803C17.5935 9.83967 17.423 9.19338 17.2732 8.54708C17.1879 8.17589 17.0704 7.69541 17.0704 7.31479C17.0704 6.87576 17.1557 6.53659 17.3092 6.27468L5.30725 6.73256C3.44972 6.80416 3.44972 7.27522 3.44972 8.29648V33.3908C3.44972 34.6872 3.92358 34.8643 5.34517 34.8116L17.5916 34.3462C19.6861 34.267 20.0804 32.0135 20.0804 30.9526C20.0804 30.0501 19.6861 30.0256 18.9355 30.0538L10.9159 30.3591V21.6407H10.9178Z" fill="white"/>
<path fill-rule="evenodd" clip-rule="evenodd" d="M40.3673 8.94654C40.32 6.35383 39.9067 5.41736 36.62 5.5436C34.8819 5.60955 34.4479 6.09757 34.4479 7.51075C34.4081 14.8951 32.7893 23.8321 30.7347 27.838L26.0738 8.37938C25.5601 6.27845 25.126 5.98074 23.5452 6.04104L19.5155 6.19366C18.2513 6.24265 17.857 6.45369 17.857 7.31667C17.857 7.67091 18.0541 8.60549 18.6872 10.859L23.9812 30.0972C24.8114 33.0498 25.1659 34.0579 26.904 33.9919L30.42 33.8581C31.527 33.8167 32.3553 33.1949 32.9088 32.428C34.173 30.6417 36.4968 25.754 38.216 20.5177C38.199 20.0146 38.1914 19.5209 38.1914 19.0423C38.1895 15.6469 38.6046 11.869 40.3673 8.94654Z" fill="white"/>
<path fill-rule="evenodd" clip-rule="evenodd" d="M62.4379 18.1473C62.4379 16.0087 62.2844 14.1923 61.9906 12.6528C60.315 12.4512 59.3313 10.9514 59.3313 9.27629C59.3313 8.95408 59.3654 8.63376 59.4336 8.32097C59.5019 8.00442 59.6023 7.70106 59.7274 7.41089C57.6822 5.04239 54.568 4.50727 50.7051 4.65424C44.3061 4.89731 38.9723 7.33928 38.9723 19.0423C38.9723 30.6662 43.5555 34.0654 50.7051 33.7941C53.971 33.6697 56.8805 32.5863 58.9844 30.1594C59.0621 29.0948 59.6801 28.1206 60.3188 27.2934C60.6145 26.9109 60.9273 26.5378 61.2476 26.1685C62.0115 24.0318 62.4379 21.3844 62.4379 18.1473ZM54.7746 20.8738C54.7746 27.5101 53.8667 30.0199 50.7051 30.1405C47.6629 30.2555 46.6356 27.7042 46.6356 21.1847V16.6286C46.6356 10.6198 47.3464 8.39446 50.7051 8.26633C53.7871 8.14951 54.7746 11.0173 54.7746 16.476V20.8738Z" fill="white"/>
<path fill-rule="evenodd" clip-rule="evenodd" d="M77.2603 10.0771C77.2603 5.56056 75.6397 2.9132 68.9241 3.16946C64.5779 3.33527 60.1141 5.93929 60.1141 9.27817C60.1141 10.5745 60.8647 11.9595 62.4853 11.8973C63.7098 11.8502 64.0263 11.2095 65.7644 8.90509C66.7918 7.53148 67.4628 6.87765 68.5299 6.83619C69.5572 6.79662 69.9515 7.68599 69.9515 10.9457C69.9515 15.3436 68.8445 18.4884 63.5126 24.778C61.6551 26.9693 59.7597 28.6915 59.7597 30.3798C59.7597 31.6366 60.4306 31.9645 61.6172 31.9193L75.1279 31.4048C77.103 31.3295 77.9332 29.4528 77.9332 26.6641C77.9332 26.6208 77.9332 26.5793 77.9332 26.5378L77.1807 26.5661C75.8425 26.617 74.8986 26.0988 74.6294 24.9438L66.5965 25.249C72.9141 19.9826 77.2603 15.7713 77.2603 10.0771Z" fill="#FFCA07"/>
<path fill-rule="evenodd" clip-rule="evenodd" d="M94.452 22.9295C94.452 21.3581 94.452 20.8097 93.148 20.8587L92.24 20.8927V4.75222C92.24 3.45586 91.7662 3.27874 90.3825 3.3315L89.6319 3.35977C87.4199 3.44456 87.183 3.88546 85.2079 6.90591L76.0036 20.7268C75.3326 21.7349 75.3326 22.4811 75.3326 23.3836V24.2089C75.3326 25.4657 76.0434 25.8313 77.1504 25.7898L85.1302 25.4864V30.1594C85.1302 31.4162 85.4468 31.6008 86.9081 31.5443L90.3844 31.4124C92.2419 31.3408 92.2419 30.8697 92.2419 29.888V25.2151L93.0721 25.1831C94.452 25.1284 94.452 24.3823 94.452 22.9295ZM79.6372 21.3731L85.1283 12.7998V21.164L79.6372 21.3731Z" fill="#FFCA07"/>
</svg>
