<svg width="130" height="64" viewBox="0 0 130 64" fill="none" xmlns="http://www.w3.org/2000/svg">
<path d="M5.65999 63.8753C5.47272 63.7738 5.1795 63.6797 5.06862 63.5238C4.97499 63.3901 4.87642 63.2836 4.74583 63.1722C4.57334 63.0237 4.51912 62.8356 4.48955 62.6375C4.46984 62.5063 4.42548 62.4098 4.42548 62.2785C4.42548 62.0978 4.52406 61.9493 4.54624 61.828C4.56595 61.7215 4.57826 61.6176 4.58566 61.5086C4.6103 61.0408 4.63247 60.5753 4.67683 60.1074C4.71871 59.6618 4.69654 59.2237 4.77539 58.7781C4.84932 58.3597 4.86903 57.924 4.88381 57.5056C4.89613 57.1838 4.98237 56.8446 4.98237 56.5179C4.98237 56.1465 4.94542 56.0277 4.94542 55.8321C4.94542 55.5697 4.95773 55.238 5.71174 55.2083C5.81031 55.2033 5.93351 55.2058 6.03454 55.2157C6.14049 55.2256 6.25384 55.2231 6.35733 55.238C6.46329 55.2528 6.6062 55.2999 6.70476 55.337C6.88217 55.4063 6.97088 55.5474 6.97088 55.6762C6.97088 55.8272 6.91421 55.993 6.8674 56.1143C6.80826 56.2653 6.76883 56.4584 6.76883 56.6094C6.76883 56.8941 6.91422 57.1095 6.97582 57.3868C7.00046 57.5031 7.02017 57.6888 7.02017 57.9215C7.02017 58.0998 6.89943 58.2978 6.87971 58.4785C6.86 58.6394 6.84768 58.7731 6.84768 58.9588C6.84768 59.0801 6.86493 59.2014 6.86493 59.3202C6.86493 59.5059 6.71216 59.6891 6.71216 59.8153C6.71216 59.8747 6.75158 59.9144 6.75158 60.0208C6.75158 60.1495 6.68012 60.2981 6.67519 60.4095C6.67026 60.6001 6.68012 60.7981 6.68012 60.9863C6.68012 61.1571 6.65055 61.3205 6.63084 61.4913C6.61113 61.6522 6.54952 61.828 6.54952 61.9938C6.54952 62.2067 6.7097 62.229 6.88465 62.2216C7.15077 62.2117 7.41689 62.1795 7.68301 62.1696C7.98116 62.1572 8.28671 62.1548 8.58979 62.1696C8.87562 62.1845 9.12449 62.2662 9.12449 62.4296C9.12449 62.4865 9.10724 62.5286 9.10724 62.6004C9.10724 62.6647 9.11464 62.7241 9.11464 62.786C9.11464 63.046 8.96433 63.1153 8.74256 63.244C8.58486 63.3356 8.43701 63.4495 8.2941 63.5559C8.06986 63.7243 7.83578 63.7094 7.55487 63.7689C7.49573 63.7812 7.45878 63.7887 7.42182 63.7887C7.33557 63.7911 7.27889 63.7788 7.21483 63.7812C7.13597 63.7837 7.09162 63.8085 6.99799 63.8406C6.83782 63.8951 6.3105 63.9917 6.13309 63.9991C5.95568 64.0065 5.83248 63.9694 5.65999 63.8753Z" fill="#CC0000"/>
<path d="M18.6777 63.6401C18.6087 63.6426 18.488 63.5906 18.4239 63.5758C18.2367 63.5361 18.079 63.4792 17.8868 63.4C17.7365 63.3381 17.6182 63.2762 17.49 63.1945C17.3989 63.1351 17.2535 63.0707 17.2018 62.9791C17.0859 62.7761 16.9948 62.5731 16.9824 62.3429C16.9751 62.1845 16.98 62.0285 16.98 61.8726C16.98 61.7562 16.9479 61.7438 16.9479 61.6176C16.9479 61.5186 16.9627 61.4121 16.943 61.3155C16.9332 61.2685 16.9233 61.2165 16.8814 61.1942C16.8494 61.1794 16.8248 61.1744 16.805 61.1769C16.7681 61.1794 16.7385 61.1992 16.6868 61.2141C16.5241 61.2586 16.4404 61.2759 16.2753 61.2834C16.1225 61.2883 15.9845 61.2784 15.7923 61.266C15.6888 61.2586 15.5656 61.2091 15.4424 61.2141C15.403 61.2165 15.3685 61.224 15.3364 61.2413C15.233 61.3007 15.1911 61.4913 15.1566 61.5829C15.0531 61.8453 15.058 62.083 14.9619 62.3256C14.8584 62.588 14.8288 62.8752 14.6564 63.1178C14.5824 63.2218 14.5184 63.348 14.437 63.447C14.3754 63.5213 14.2917 63.5411 14.1734 63.5461C14.1216 63.5485 14.065 63.551 14.0058 63.5758C13.9171 63.6079 13.619 63.6401 13.5377 63.6426C13.3701 63.65 13.003 63.5312 13.003 63.395C13.003 63.2539 13.0991 63.0237 13.1459 62.8405C13.2075 62.5954 13.2223 62.3454 13.2592 62.0929C13.2937 61.8602 13.3923 61.6423 13.4268 61.4121C13.4687 61.1373 13.5056 60.86 13.5475 60.5828C13.6165 60.1149 13.7274 59.6371 13.89 59.1816C13.9615 58.9786 14.0034 58.7533 14.0477 58.5478C14.1044 58.2805 14.1882 58.023 14.2867 57.7606C14.474 57.2605 14.5701 56.7456 14.7278 56.2431C14.7672 56.1168 14.8584 56.0054 14.9003 55.8792C14.9348 55.7727 14.9668 55.6663 15.0038 55.5598C15.0752 55.3593 15.1837 55.1934 15.2847 54.983C15.3759 54.7924 15.5434 54.5374 15.7208 54.421C15.7824 54.3814 15.8169 54.369 15.8687 54.369C15.9648 54.3666 16.4576 54.374 16.5808 54.369C16.7484 54.3616 16.842 54.3517 16.98 54.3468C17.1056 54.3418 17.2264 54.3542 17.3447 54.4062C17.4432 54.4507 17.5344 54.5374 17.6157 54.5968C17.7217 54.6735 17.7981 54.7206 17.8399 54.8023C17.8917 54.8963 17.9286 54.983 17.9631 55.087C18.0888 55.4756 18.2219 55.8519 18.2859 56.2505C18.3057 56.3743 18.3574 56.4758 18.3574 56.6169C18.3574 56.6912 18.3377 56.763 18.3377 56.8372C18.3377 56.961 18.4215 57.112 18.4387 57.2902C18.451 57.4091 18.4707 57.5205 18.5028 57.6319C18.5324 57.7358 18.5742 57.8572 18.5841 57.9661C18.594 58.0899 18.6186 58.1691 18.6309 58.2929C18.6457 58.4315 18.6482 58.6023 18.658 58.7137C18.6703 58.8721 18.7196 59.0157 18.7467 59.1717C18.8379 59.6693 18.9389 60.1075 19.0621 60.5753C19.1262 60.8204 19.1878 61.0754 19.1977 61.3279C19.2075 61.5879 19.2642 61.6844 19.3233 61.9567C19.3849 62.2365 19.4342 62.489 19.4342 62.8009C19.4342 62.9915 19.4096 63.2069 19.274 63.3455C19.1927 63.4297 19.0646 63.4297 18.9636 63.4866C18.8822 63.5411 18.8034 63.6352 18.6777 63.6401ZM16.8543 59.6742C16.8863 59.6222 16.8864 59.5529 16.8937 59.4811C16.8962 59.4415 16.8913 59.3747 16.8937 59.3326C16.9061 59.1865 16.879 59.038 16.8716 58.8919C16.8568 58.6271 16.8272 58.3597 16.8198 58.0923C16.81 57.7383 16.7952 57.3794 16.7656 57.0278C16.7484 56.8273 16.741 56.6169 16.6966 56.4188C16.6671 56.2827 16.6178 56.1515 16.5365 56.0302C16.4404 56.1094 16.4453 56.3248 16.433 56.3842C16.3985 56.5377 16.3024 56.654 16.2679 56.8026C16.2432 56.909 16.2161 57.0154 16.2013 57.1219C16.1792 57.2828 16.1176 57.4091 16.0486 57.5626C16.0067 57.6542 15.9278 57.7556 15.9278 57.8448C15.9278 57.8819 15.9327 57.919 15.9278 57.9586C15.9204 58.0156 15.8909 58.0626 15.8736 58.1171C15.849 58.2013 15.8736 58.2879 15.8687 58.3721C15.8662 58.4216 15.849 58.4686 15.8391 58.5132C15.8268 58.5602 15.8219 58.5949 15.812 58.6444C15.7923 58.7706 15.7652 58.8994 15.7406 59.0256C15.7036 59.2212 15.6839 59.4217 15.6839 59.6198C15.6839 59.7436 15.7208 59.7906 16.0116 59.7807C16.1373 59.7757 16.2629 59.7658 16.3911 59.7658C16.4551 59.7658 16.5365 59.7708 16.6153 59.7683C16.7139 59.7658 16.81 59.746 16.8543 59.6742Z" fill="#CC0000"/>
<path d="M25.6067 63.3455C25.38 63.348 25.1558 63.2589 24.9537 63.244C24.7147 63.2267 24.5422 63.1376 24.3279 62.9197C24.0889 62.6771 24.0075 62.4221 23.9632 62.1919C23.9238 61.9914 23.8227 61.4071 23.8104 61.2165C23.7882 60.8353 23.7636 60.4986 23.7045 60.1495C23.6503 59.8327 23.6305 59.5158 23.6182 59.1816C23.6108 59.0256 23.6182 58.8697 23.6256 58.7186C23.6305 58.6072 23.6355 58.4909 23.6355 58.377C23.6355 58.0626 23.5862 57.7358 23.5418 57.4214C23.495 57.0971 23.4482 56.5203 23.4482 56.1465C23.4482 56.0821 23.4383 56.0178 23.4309 55.9534C23.4236 55.8792 23.4137 55.8024 23.4137 55.7281C23.4137 55.6861 23.4137 55.6464 23.4137 55.6093C23.4137 55.5326 23.4088 55.4583 23.3866 55.3716C23.3373 55.1934 23.3028 55.0201 23.3028 54.9459C23.3028 54.7255 23.4433 54.6067 23.7193 54.5968C23.803 54.5943 23.9287 54.6042 23.9878 54.6067C24.3796 54.6315 24.5176 54.6636 24.8305 54.8419C24.9414 54.9038 25.008 54.9558 25.0351 55.087C25.0819 55.3098 25.1213 55.4533 25.1484 55.5276C25.1706 55.587 25.1977 55.6464 25.2248 55.7034C25.2618 55.7826 25.3012 55.8618 25.3234 55.946C25.3505 56.0425 25.3751 56.1267 25.3776 56.2208C25.38 56.2876 25.3825 56.3396 25.3825 56.3767C25.385 56.4188 25.3825 56.4609 25.385 56.5055C25.3899 56.5995 25.4195 56.6961 25.4466 56.7877C25.4638 56.8422 25.4811 56.8991 25.4909 56.9536C25.5057 57.0278 25.5279 57.1021 25.5254 57.1764C25.5254 57.1962 25.523 57.216 25.518 57.2358C25.5032 57.3001 25.5057 57.367 25.5131 57.4313C25.518 57.4833 25.5279 57.5353 25.5353 57.5848C25.5501 57.6764 25.5673 57.7705 25.5673 57.867C25.5673 57.9537 25.5821 58.0329 25.5969 58.1121C25.6067 58.1592 25.6141 58.2087 25.6215 58.2582C25.6363 58.382 25.6289 58.5503 25.6215 58.7186C25.6191 58.7731 25.6166 58.8721 25.6166 58.9315C25.6166 59.0702 25.6388 59.3252 25.6536 59.4688C25.6634 59.5505 25.6609 59.6272 25.6609 59.694C25.6609 59.7732 25.6634 59.8549 25.6782 59.9515C25.7004 60.0852 25.7004 60.2114 25.6979 60.3451C25.6979 60.4293 25.6954 60.5283 25.6954 60.5976C25.6954 60.657 25.693 60.7115 25.6979 60.7536C25.7053 60.7957 25.7225 60.8229 25.7669 60.8204C25.8211 60.8179 25.8556 60.7263 25.8605 60.709C25.9123 60.5555 25.9763 60.3055 26.001 60.1619C26.0305 59.9862 26.0872 59.8079 26.1439 59.6321C26.1833 59.5108 26.208 59.3301 26.2375 59.2063C26.2671 59.085 26.3016 58.9613 26.3361 58.8325C26.3854 58.6518 26.4248 58.4463 26.4815 58.1963C26.6466 57.4883 26.8905 56.7827 27.0975 56.0574C27.2355 55.5796 27.3267 55.0919 27.4794 54.5819C27.5238 54.4359 27.5731 54.2329 27.6051 54.1561C27.6544 54.0398 27.7529 54.0126 27.8392 54.0101C27.9575 54.0051 28.093 54.067 28.2901 54.0522C28.5636 54.0299 28.8125 54.072 28.9234 54.1141C29.1205 54.1859 29.1821 54.27 29.1723 54.4433C29.1673 54.5299 29.1476 54.6389 29.118 54.78C29.0786 54.9731 29.0096 55.2404 29.0096 55.5895C29.0096 55.7578 28.9973 55.9287 28.9579 56.0995C28.9332 56.2034 28.9086 56.4139 28.884 56.5426C28.8692 56.6169 28.8544 56.6911 28.8371 56.7629C28.8199 56.8347 28.8026 56.9115 28.7903 56.9882C28.7608 57.1863 28.6992 57.3893 28.64 57.5848C28.6178 57.6616 28.5932 57.7383 28.5735 57.8151C28.5587 57.867 28.539 57.9215 28.5193 57.9735C28.4922 58.0428 28.4651 58.1121 28.4527 58.1814C28.4256 58.325 28.4133 58.4587 28.3714 58.5676C28.3517 58.6171 28.3369 58.6691 28.3148 58.7162C28.2852 58.788 28.263 58.8622 28.2433 58.9415C28.2063 59.0875 28.1669 59.3227 28.1299 59.4836C28.1053 59.5876 28.0831 59.699 28.0412 59.803C27.9747 59.9688 27.9821 60.1297 27.9156 60.2832C27.8885 60.3426 27.8589 60.4045 27.8244 60.4615C27.7874 60.5258 27.748 60.5927 27.7234 60.6645C27.7111 60.7016 27.6987 60.7412 27.6864 60.7783C27.6495 60.8947 27.6125 61.016 27.541 61.1224C27.4375 61.2809 27.4375 61.3824 27.3833 61.4913C27.3217 61.6176 27.2158 61.7215 27.1566 61.8354C27.132 61.8849 27.1147 61.9369 27.1 61.9864C27.0827 62.0384 27.0655 62.0953 27.0359 62.1473C27.0137 62.1894 26.994 62.2315 26.9743 62.2785C26.9349 62.3701 26.9127 62.4642 26.8782 62.5484C26.8166 62.692 26.7722 62.7539 26.6934 62.9445C26.654 63.041 26.6293 63.1103 26.5554 63.1896C26.4618 63.2836 26.3238 63.3505 26.1661 63.3579C25.932 63.3604 25.7743 63.343 25.6067 63.3455Z" fill="#CC0000"/>
<path d="M37.9813 62.8974C37.9123 62.8999 37.7916 62.8479 37.7276 62.8331C37.5403 62.7935 37.3826 62.7365 37.1904 62.6573C37.0401 62.5954 36.9218 62.5335 36.7937 62.4518C36.7025 62.3924 36.5596 62.3281 36.5054 62.2389C36.3895 62.0359 36.2984 61.833 36.2885 61.6002C36.2811 61.4443 36.2861 61.2858 36.2861 61.1299C36.2861 61.0135 36.254 61.0012 36.254 60.8749C36.254 60.7759 36.2688 60.6694 36.2491 60.5729C36.2392 60.5258 36.2294 60.4738 36.1875 60.4516C36.1555 60.4367 36.1308 60.4318 36.1111 60.4342C36.0742 60.4367 36.0446 60.4565 35.9928 60.4714C35.8302 60.5159 35.7464 60.5333 35.5813 60.5407C35.4261 60.5456 35.2906 60.5357 35.0984 60.5234C34.9974 60.5159 34.8717 60.4664 34.7485 60.4714C34.709 60.4739 34.6745 60.4813 34.6425 60.4986C34.539 60.558 34.4971 60.7486 34.4626 60.8402C34.3591 61.1026 34.3641 61.3403 34.268 61.5829C34.1645 61.8453 34.1349 62.1325 33.9624 62.3751C33.8885 62.4791 33.8244 62.6053 33.7431 62.7043C33.6815 62.7786 33.6002 62.7984 33.4795 62.8034C33.4277 62.8059 33.3711 62.8083 33.3119 62.8331C33.2232 62.8653 32.9251 62.8975 32.8437 62.8999C32.6762 62.9074 32.309 62.7885 32.309 62.6524C32.309 62.5113 32.4051 62.281 32.452 62.0978C32.5136 61.8528 32.5283 61.6027 32.5653 61.3502C32.5998 61.1175 32.6984 60.8997 32.7329 60.6694C32.7747 60.3946 32.8117 60.1174 32.8536 59.8401C32.9226 59.3722 33.0335 58.8944 33.1961 58.4389C33.2676 58.2359 33.3095 58.0131 33.3538 57.8052C33.4105 57.5378 33.4943 57.2803 33.5928 57.0179C33.7776 56.5179 33.8762 56.0029 34.0339 55.5004C34.0733 55.3741 34.1645 55.2627 34.2064 55.1365C34.2409 55.03 34.2729 54.9236 34.3099 54.8171C34.3813 54.6166 34.4897 54.4507 34.5908 54.2403C34.6819 54.0497 34.8495 53.7947 35.0269 53.6784C35.0885 53.6388 35.123 53.6264 35.1748 53.6264C35.2709 53.6239 35.7637 53.6313 35.8869 53.6264C36.0544 53.6189 36.1481 53.6091 36.2861 53.6041C36.4117 53.5992 36.5325 53.6115 36.6507 53.6635C36.7493 53.7081 36.8405 53.7947 36.9218 53.8541C37.0277 53.9309 37.1041 53.9779 37.146 54.0596C37.1978 54.1537 37.2347 54.2403 37.2692 54.3443C37.3949 54.733 37.528 55.1093 37.592 55.5078C37.6117 55.6316 37.6635 55.7331 37.6635 55.8742C37.6635 55.9485 37.6438 56.0203 37.6438 56.0945C37.6438 56.2183 37.7275 56.3693 37.7423 56.5476C37.7547 56.6664 37.7744 56.7778 37.8064 56.8892C37.836 56.9932 37.8779 57.1145 37.8877 57.2234C37.8976 57.3472 37.9222 57.4264 37.9345 57.5502C37.9493 57.6888 37.9518 57.8596 37.9616 57.971C37.974 58.1295 38.0208 58.2731 38.0503 58.429C38.1415 58.9266 38.2425 59.3648 38.3658 59.8327C38.4298 60.0778 38.4914 60.3327 38.5013 60.5852C38.5111 60.8452 38.5678 60.9417 38.6269 61.2141C38.6885 61.4938 38.7378 61.7463 38.7378 62.0582C38.7378 62.2488 38.7132 62.4642 38.5777 62.6029C38.4963 62.687 38.3682 62.6846 38.2672 62.744C38.1859 62.796 38.1045 62.8925 37.9813 62.8974ZM36.1579 58.9316C36.19 58.8796 36.19 58.8103 36.1973 58.7385C36.1998 58.6989 36.1949 58.632 36.1973 58.5899C36.2097 58.4439 36.1826 58.2953 36.1727 58.1493C36.1579 57.8844 36.1284 57.617 36.121 57.3496C36.1111 56.9956 36.0963 56.6367 36.0668 56.2852C36.0495 56.0846 36.0421 55.8742 35.9978 55.6762C35.9682 55.54 35.9189 55.4088 35.8376 55.2875C35.7415 55.3667 35.7464 55.5821 35.7341 55.6415C35.6996 55.795 35.6035 55.9113 35.569 56.0599C35.5444 56.1663 35.5173 56.2728 35.5025 56.3792C35.4803 56.5401 35.4187 56.6664 35.3497 56.8199C35.3078 56.9115 35.229 57.013 35.229 57.1021C35.229 57.1392 35.2339 57.1764 35.229 57.216C35.2216 57.2729 35.192 57.32 35.1748 57.3744C35.1501 57.4586 35.1748 57.5452 35.1698 57.6294C35.1674 57.6789 35.1501 57.7259 35.1403 57.7705C35.1279 57.8175 35.123 57.8522 35.1132 57.9017C35.0935 58.028 35.0663 58.1567 35.0417 58.283C35.0047 58.4785 34.985 58.6791 34.985 58.8771C34.985 59.0009 35.022 59.0479 35.3128 59.038C35.4384 59.0331 35.5641 59.0232 35.6922 59.0232C35.7563 59.0232 35.8376 59.0281 35.9165 59.0256C36.015 59.0232 36.1111 59.0033 36.1579 58.9316Z" fill="#CC0000"/>
<path d="M45.896 62.739C45.7629 62.744 45.6175 62.7341 45.4919 62.739C45.0754 62.7514 44.6418 62.6895 44.2401 62.6227C43.8607 62.5608 43.4418 62.4568 43.2742 62.1721C43.1954 62.0384 43.1288 61.8998 43.0401 61.7686C42.9613 61.6522 42.843 61.5012 42.8405 61.3626C42.8405 61.3304 42.843 61.2858 42.843 61.271C42.8405 61.1472 42.8085 61.0556 42.7715 60.9219C42.742 60.8204 42.7198 60.6867 42.7173 60.5803C42.7099 60.1991 42.9243 60.0258 43.3062 59.8995C43.4467 59.8525 43.5748 59.8252 43.6956 59.8203C43.9025 59.8129 44.0824 59.8772 44.2401 60.0456C44.2722 60.0802 44.2968 60.1198 44.314 60.1594C44.3929 60.3402 44.3559 60.5654 44.4964 60.7263C44.5358 60.7709 44.6073 60.7783 44.6467 60.8204C44.6861 60.86 44.6861 60.917 44.7182 60.9615C44.8069 61.0853 44.9103 61.1596 44.9769 61.2759C45.0582 61.417 45.1789 61.5235 45.3761 61.5161C45.514 61.5111 45.657 61.417 45.7481 61.3403C45.9748 61.1447 45.9748 60.9714 45.9699 60.714C45.9625 60.4021 45.7457 59.9911 45.5559 59.7658C45.3884 59.5678 45.275 59.3524 45.1124 59.1568C45.0188 59.0454 44.9572 58.9192 44.866 58.8078C44.765 58.684 44.6097 58.5775 44.5161 58.4513C44.3461 58.2235 44.1687 57.9958 44.0183 57.7556C43.9272 57.6096 43.8557 57.4536 43.7498 57.3125C43.6561 57.1887 43.528 57.0823 43.4516 56.9486C43.3112 56.6986 43.1806 56.4881 43.0919 56.2406C43.0278 56.0599 42.9859 55.8371 42.981 55.6242C42.9785 55.5227 42.9859 55.4236 43.0007 55.3321C43.0327 55.1662 43.1608 54.9459 43.2027 54.78C43.2446 54.6216 43.3309 54.4903 43.4048 54.3393C43.5206 54.1017 43.836 53.9903 44.0873 53.8616C44.2204 53.7922 44.4003 53.7452 44.5457 53.6907C44.7231 53.6239 44.9301 53.6016 45.1198 53.5818C45.3391 53.557 45.5732 53.4976 45.726 53.4902C45.7925 53.4877 45.8073 53.51 45.8442 53.51C45.896 53.5075 45.9206 53.4803 45.965 53.4778C46.1177 53.4729 46.3814 53.5298 46.5761 53.5694C46.7461 53.6041 46.8939 53.7006 47.0664 53.7155C47.1748 53.7254 47.2512 53.6982 47.3498 53.7452C47.4212 53.7774 47.4779 53.8442 47.5321 53.8913C47.5814 53.9333 47.6085 53.9853 47.6553 54.0274C47.7145 54.0843 47.818 54.0893 47.8746 54.1289C47.8968 54.1438 47.8993 54.1611 47.8993 54.1735C47.8993 54.1933 47.887 54.2106 47.887 54.2354C47.8894 54.2973 47.9387 54.3517 47.9461 54.4235C47.9535 54.4953 47.9658 54.5498 47.988 54.624C47.9978 54.6562 48.0028 54.6859 48.0028 54.7156C48.0052 54.7726 47.988 54.8468 47.9905 54.9211C47.9929 55.0399 48.0915 55.2305 48.1186 55.3791C48.1383 55.4831 48.1802 55.644 48.1826 55.7232C48.1826 55.7826 48.1728 55.842 48.1432 55.8915C47.9806 56.1663 47.5543 56.3124 47.2192 56.3248C47.1009 56.3297 46.8989 56.2852 46.7929 56.2282C46.7239 56.1911 46.6672 56.144 46.5909 56.1094C46.4701 56.0549 46.443 56.0128 46.4011 55.9064C46.3469 55.7727 46.3297 55.6836 46.2828 55.5548C46.2385 55.4286 46.1498 55.3321 46.1005 55.2132C45.9945 54.9632 45.9083 54.7973 45.689 54.8072C45.5264 54.8147 45.344 55.0424 45.2898 55.2652C45.2701 55.3444 45.2479 55.4236 45.2257 55.5029C45.2159 55.535 45.2134 55.5549 45.2159 55.5846C45.2159 55.6217 45.2356 55.691 45.2356 55.738C45.2356 55.7752 45.2233 55.8098 45.2233 55.8445C45.2233 55.8965 45.2898 55.9386 45.2997 55.993C45.3194 56.0846 45.3021 56.2134 45.3317 56.3198C45.3637 56.4436 45.5338 56.607 45.6126 56.7134C45.657 56.7728 45.7334 56.8174 45.7826 56.8793C45.8516 56.9659 45.8984 57.0625 45.9674 57.1491C46.0463 57.2506 46.1572 57.3546 46.2188 57.4635C46.2508 57.5155 46.1991 57.6046 46.2631 57.6343C46.4085 57.7012 46.4775 57.7433 46.5095 57.8175C46.5588 57.9364 46.6155 57.9982 46.7239 58.0923C46.8249 58.179 46.7855 58.2557 46.8841 58.3424C46.9925 58.4364 47.0935 58.5528 47.2069 58.6469C47.3177 58.736 47.3399 58.8177 47.436 58.9192C47.5518 59.043 47.6011 59.2088 47.6775 59.3499C47.7588 59.4985 47.8599 59.6421 47.9289 59.7931C48.0151 59.9812 48.1309 60.2337 48.1358 60.454C48.1408 60.6744 47.9535 61.2239 47.7785 61.4047C47.6726 61.5136 47.6332 61.6547 47.5494 61.7735C47.4582 61.9047 47.3252 62.0384 47.1995 62.1498C47.0985 62.2389 46.9728 62.2909 46.82 62.3974C46.7091 62.4741 46.549 62.5038 46.4258 62.5781C46.2508 62.687 46.0808 62.7316 45.896 62.739Z" fill="#CC0000"/>
<path d="M53.9708 62.083C53.6554 62.0953 52.719 62.0236 52.5613 61.7809C52.4677 61.6374 52.4726 61.5061 52.4726 61.3452C52.4726 61.2264 52.5244 61.0556 52.5244 60.9888C52.5244 60.813 52.5194 60.7338 52.5194 60.61C52.5194 60.3847 52.5465 60.152 52.5515 59.9342C52.5613 59.5826 52.6303 59.2261 52.6476 58.8746C52.6648 58.4983 52.6131 57.9314 52.6205 57.5551C52.6377 56.8521 52.6303 56.352 52.6821 55.6514C52.7092 55.2949 52.7806 54.9384 52.8053 54.5795C52.8151 54.4458 52.8422 54.2601 52.8422 54.1784C52.8422 54.1116 52.8274 54.0249 52.8274 53.9655C52.8274 53.8764 52.8521 53.7922 52.963 53.7328C53.1059 53.6585 53.2734 53.6041 53.5248 53.5793C53.579 53.5744 53.8821 53.5521 53.9461 53.5496C54.3626 53.5348 54.3773 53.817 54.3773 54.015C54.3773 54.1438 54.365 54.2774 54.365 54.3888C54.365 54.7082 54.4661 55.1043 54.4661 55.3519C54.4661 55.4954 54.4636 55.5845 54.4636 55.7281C54.4636 55.9014 54.5449 56.1737 54.5893 56.3718C54.6139 56.4857 54.6435 56.6045 54.6435 56.7208C54.6435 56.857 54.5991 56.8966 54.5991 57.0154C54.5991 57.1293 54.6361 57.2259 54.6484 57.3422C54.6558 57.4091 54.6878 57.4734 54.6927 57.5378C54.6977 57.612 54.6804 57.6913 54.6878 57.768C54.7051 57.9537 54.742 58.0255 54.8184 58.023C54.8702 58.0205 54.9392 57.9958 54.9811 57.9883C55.1535 57.9611 55.3236 57.9611 55.4985 57.9438C55.7129 57.9215 55.8065 57.8918 56.0307 57.8819C56.0997 57.8794 56.1737 57.8844 56.2377 57.8819C56.4447 57.8745 56.4841 57.8076 56.4841 57.6442C56.4841 57.5502 56.4718 57.3571 56.4694 57.268C56.462 56.9684 56.5063 56.6664 56.5014 56.3644C56.4965 56.045 56.4398 55.7257 56.4398 55.4038C56.4398 55.0127 56.4102 54.5819 56.425 54.1933C56.4398 53.8343 56.4965 53.5174 56.5285 53.1609C56.5408 53.0223 56.5162 52.9332 56.7256 52.8614C56.8069 52.8317 56.8735 52.7995 56.9572 52.7946C57.0262 52.7921 57.0952 52.8193 57.1667 52.8193C57.524 52.8168 57.9207 52.8391 58.0267 53.156C58.2312 53.765 58.278 54.2824 58.3125 54.9161C58.3199 55.0672 58.3716 55.3221 58.3716 55.4732C58.3716 55.6365 58.379 55.795 58.379 55.9584C58.379 56.1316 58.3889 56.2827 58.3913 56.5005C58.3913 56.5723 58.4184 56.7728 58.4184 56.8421C58.4184 57.0724 58.4209 57.3026 58.4209 57.5328C58.4209 57.9364 58.4135 58.3448 58.3815 58.7483C58.3741 58.8375 58.3692 58.9315 58.3692 59.0231C58.3692 59.241 58.4529 59.439 58.4529 59.7237C58.4529 59.8648 58.4332 59.9787 58.4135 60.1C58.3839 60.2684 58.3519 60.3798 58.3347 60.5778C58.3223 60.7164 58.3519 60.7783 58.3519 60.9541C58.3519 61.0333 58.3125 61.167 58.3125 61.2462C58.3125 61.3997 58.3692 61.4492 58.3692 61.5631C58.3692 61.823 58.0809 61.9171 57.763 61.9295C57.4254 61.9418 56.5137 61.8503 56.3732 61.672C56.3338 61.6225 56.3215 61.5581 56.3215 61.4888C56.3215 61.3873 56.3486 61.2759 56.356 61.1918C56.3732 60.9987 56.4028 60.808 56.4077 60.6149C56.4151 60.2981 56.3856 60.2065 56.388 60.0084C56.3905 59.8178 56.425 59.7287 56.425 59.5554C56.425 59.4762 56.4102 59.4044 56.2771 59.4093C56.1958 59.4118 56.0874 59.4267 56.0381 59.4366C55.873 59.4663 55.8016 59.4861 55.5749 59.496C55.3728 59.5034 55.1511 59.491 54.949 59.5133C54.7396 59.5381 54.7273 59.6396 54.7051 59.7906C54.6854 59.9193 54.6656 60.0802 54.6656 60.2387C54.6656 60.407 54.7568 60.5531 54.7568 60.714C54.7568 60.8724 54.7125 61.0383 54.6903 61.1992C54.6681 61.3675 54.6706 61.6299 54.5942 61.7908C54.4956 61.9889 54.2812 62.0706 53.9708 62.083Z" fill="#CC0000"/>
<path d="M70.5664 61.4789C70.4875 61.4418 70.3742 61.4294 70.3052 61.3948C70.251 61.3675 70.2239 61.3304 70.182 61.2908C70.0612 61.172 69.9208 61.1051 69.8173 60.9714C69.4255 60.459 69.4058 59.7732 69.3121 59.1964C69.2678 58.9291 69.2555 58.6592 69.2284 58.3943C69.2087 58.2186 69.1988 58.0403 69.1988 57.8646C69.1988 57.7952 69.2111 57.7284 69.2111 57.6616C69.2087 57.5749 69.1692 57.4957 69.1692 57.4115C69.1692 57.3001 69.2407 57.2011 69.2407 57.0773C69.2407 57.0179 69.2185 56.9585 69.221 56.8991C69.2234 56.81 69.2505 56.7184 69.2629 56.6292C69.3072 56.2752 69.3146 55.9262 69.4082 55.5771C69.5832 54.9236 69.7039 54.2873 70.0021 53.6536C70.214 53.208 70.6551 52.6832 71.3179 52.547C71.515 52.5049 71.759 52.4381 71.9635 52.4306C72.1483 52.4257 72.2567 52.396 72.4415 52.3886C72.577 52.3836 72.7224 52.4183 72.8875 52.4331C73.1068 52.4529 73.3114 52.4826 73.5233 52.5445C73.8485 52.6386 74.0777 52.8267 74.2428 53.0495C74.3364 53.1758 74.4374 53.3243 74.5188 53.4555C74.5557 53.515 74.5853 53.5892 74.6075 53.6536C74.6395 53.7402 74.6222 53.8145 74.6149 53.9036C74.605 54.0497 74.6099 54.1834 74.5804 54.3319C74.5483 54.4953 74.5483 54.6488 74.5483 54.8122C74.5483 54.9384 74.4941 55.0498 74.4744 55.1835C74.4448 55.3642 74.4079 55.488 74.2354 55.6291C74.0259 55.8024 73.6933 55.9485 73.3803 55.9608C73.2892 55.9633 73.2029 55.9559 73.1191 55.9361C72.9812 55.9014 72.7569 55.8074 72.7569 55.6811C72.7569 55.6093 72.8259 55.5053 72.8456 55.4434C72.8727 55.3593 72.8456 55.2974 72.8456 55.2157C72.8506 55.0572 72.8654 54.9161 72.8432 54.7528C72.8161 54.5621 72.7619 54.421 72.6732 54.2428C72.6042 54.1041 72.5943 53.8937 72.4785 53.7749C72.4169 53.713 72.3627 53.6907 72.3109 53.6932C72.2271 53.6957 72.1508 53.7625 72.0695 53.8096C71.9906 53.8541 71.9438 53.9061 71.8797 53.9754C71.8255 54.0348 71.7812 54.1017 71.7639 54.171C71.7196 54.3443 71.6924 54.5002 71.6506 54.6933C71.5101 55.3197 71.4436 55.9708 71.2834 56.5896C71.2489 56.7258 71.2193 56.8149 71.2193 56.9511C71.2193 56.9808 71.2218 57.0501 71.2243 57.0773C71.244 57.2382 71.1972 57.3868 71.1898 57.5502C71.1725 57.8621 71.2243 58.1245 71.2391 58.4339C71.244 58.5156 71.2785 58.6171 71.2785 58.6889C71.2785 58.7285 71.276 58.7682 71.276 58.8102C71.276 58.9934 71.2686 59.2187 71.3327 59.397C71.3869 59.5529 71.4855 59.6717 71.4855 59.845C71.4855 59.9688 71.4485 60.0852 71.5052 60.2065C71.5717 60.3525 71.6087 60.454 71.7639 60.5555C71.8625 60.6199 71.9561 60.6397 72.03 60.6372C72.1089 60.6348 72.1877 60.6026 72.2888 60.5085C72.5376 60.2783 72.5918 59.8946 72.6608 59.6173C72.7027 59.4465 72.7569 59.2757 72.8013 59.1048C72.8161 59.0479 72.8136 58.9934 72.8259 58.9365C72.8407 58.8622 72.8949 58.7929 72.9196 58.7162C72.9738 58.5478 73.0083 58.3671 73.0403 58.1963C73.0674 58.0527 73.0403 57.8893 73.0994 57.7507C73.1487 57.6418 73.2448 57.5749 73.3754 57.5229C73.4395 57.4982 73.506 57.4809 73.5725 57.461C73.6908 57.4239 73.8066 57.4165 73.9003 57.414C73.952 57.4115 74.0111 57.3942 74.0654 57.3917C74.1984 57.3868 74.2896 57.5353 74.3512 57.5898C74.4128 57.6467 74.4744 57.7037 74.5385 57.7581C74.5877 57.7977 74.642 57.8497 74.6765 57.8943C74.7159 57.9438 74.7307 57.9958 74.7454 58.0552C74.7676 58.1369 74.807 58.2161 74.8268 58.3003C74.8563 58.424 74.881 58.5503 74.881 58.6766C74.881 58.9588 74.7898 59.5331 74.7159 59.7312C74.6198 59.9911 74.5976 60.2436 74.4226 60.4912C74.3438 60.6026 74.2181 60.7016 74.1344 60.8179C74.0309 60.959 73.8978 61.0705 73.7376 61.1769C73.4641 61.3601 73.1339 61.4864 72.7914 61.5656C72.6436 61.6002 72.5302 61.6646 72.3799 61.6671C72.1606 61.6695 72.0251 61.6968 71.7541 61.7067C71.3228 61.724 70.9286 61.6448 70.5664 61.4789Z" fill="#CC0000"/>
<path d="M80.6519 61.1868C80.4621 61.1942 80.2132 61.0209 80.0309 60.9442C79.8018 60.8476 79.5874 60.7907 79.3459 60.709C79.0527 60.61 79.0601 60.3253 79.0601 60.204C79.0601 60.0035 79.1611 59.8599 79.1611 59.6C79.1611 58.6196 79.3878 57.6319 79.3878 56.6466C79.3878 56.1094 79.405 55.5697 79.4198 55.0275C79.4321 54.5745 79.5208 54.124 79.5208 53.6684C79.5208 53.4927 79.4592 53.2476 79.4592 53.0669C79.4592 52.854 79.5209 52.6634 79.7599 52.6089C79.9669 52.5619 80.1837 52.5668 80.4251 52.5569C80.7824 52.5421 81.1126 52.4604 81.4576 52.4034C81.7287 52.3613 82.012 52.3366 82.2855 52.3143C82.4211 52.3019 82.5393 52.292 82.6428 52.2871C82.8498 52.2796 82.9977 52.297 83.1209 52.3811C83.3131 52.5124 83.5151 52.5891 83.6359 52.7723C83.7443 52.9357 83.7985 53.0397 83.8059 53.1832C83.8083 53.2154 83.7886 53.2996 83.7886 53.3392C83.7886 53.3912 83.8133 53.4456 83.8133 53.4976C83.8133 53.6214 83.6014 53.6858 83.3895 53.7353C83.3426 53.7452 83.2983 53.7501 83.2539 53.7526C83.1628 53.7551 83.074 53.7477 82.9829 53.7526C82.8202 53.76 82.2954 53.8813 82.0194 53.8913C81.879 53.8962 81.7385 53.8764 81.6128 53.8814C81.4059 53.8888 81.3245 54.0101 81.3245 54.1586C81.3245 54.4037 81.3492 54.7082 81.3492 54.9508C81.3492 55.035 81.3467 55.1216 81.3393 55.2083C81.3221 55.389 81.2999 55.6019 81.2925 55.7975C81.2827 56.0376 81.3985 56.0599 81.672 56.05C81.7706 56.045 82.325 56.0227 82.5886 55.9905C82.6305 55.9856 82.6699 55.9831 82.7094 55.9806C82.835 55.9757 82.9459 55.9881 83.0814 55.998C83.1554 56.0029 83.2564 55.9831 83.3155 56.0178C83.3623 56.045 83.3821 56.1094 83.424 56.144C83.5447 56.2505 83.6556 56.3148 83.7221 56.456C83.796 56.6119 83.9291 56.7728 83.9291 56.9387C83.9291 57.1937 83.5743 57.3076 83.2835 57.362C83.0814 57.4016 82.872 57.4091 82.6699 57.4536C82.5985 57.4685 82.5048 57.4784 82.4087 57.4809C82.2634 57.4858 82.1057 57.4808 81.9948 57.4759C81.8913 57.4709 81.7607 57.4586 81.64 57.4635C81.4182 57.4709 81.2482 57.5576 81.2482 57.7804C81.2482 57.8992 81.2679 58.0205 81.2679 58.1394C81.2679 58.3052 81.2383 58.4711 81.2063 58.6369C81.1866 58.7434 81.1052 59.0553 81.1052 59.1816C81.1052 59.3202 81.2038 59.3772 81.3344 59.3747C81.7779 59.3574 82.4211 59.1865 82.8473 59.1692C83.0667 59.1618 83.4092 59.2286 83.6014 59.4217C83.7344 59.5554 83.7517 59.5975 83.7837 59.6792C83.8256 59.7856 83.8995 59.8871 83.9488 59.9911C83.9907 60.0777 84.0178 60.1817 84.0178 60.2436C84.0178 60.3748 83.9439 60.4887 83.7344 60.5605C83.6038 60.605 83.4609 60.6273 83.3303 60.6719C83.1775 60.7239 83.0346 60.8031 82.8745 60.8402C82.8178 60.8526 82.7439 60.86 82.665 60.8625C82.5738 60.865 82.4728 60.865 82.3792 60.8699C82.288 60.8724 82.2018 60.8798 82.1377 60.8996C81.9578 60.9516 81.8469 61.0185 81.6473 61.0308C81.4724 61.0408 81.3073 61.0383 81.1348 61.0803C80.9771 61.1175 80.8194 61.1818 80.6519 61.1868Z" fill="#CC0000"/>
<path d="M89.1702 61.0779C89.0248 61.0828 88.8819 61.0432 88.6946 61.0507C88.6429 61.0531 88.5837 61.063 88.5197 61.0655C88.4162 61.0705 88.362 60.9764 88.362 60.8477C88.362 60.5481 88.362 60.3005 88.3792 59.9985C88.3792 59.8624 88.4137 59.7386 88.4137 59.5727C88.4137 59.4564 88.4038 59.1841 88.4063 59.0702C88.4137 58.7706 88.4556 58.3448 88.4654 58.2582C88.4753 58.1716 88.4802 58.0304 88.4852 57.9463C88.4925 57.7259 88.4852 57.565 88.4852 57.3274C88.4852 56.8768 88.5468 56.4164 88.5468 55.9633C88.5468 55.6192 88.5246 55.1439 88.5246 55.0424C88.5246 54.884 88.5295 54.7231 88.5369 54.5621C88.5443 54.4111 88.5714 54.2725 88.5886 54.1091C88.601 53.9977 88.5985 53.8863 88.5985 53.7625C88.5985 53.6437 88.6231 53.3763 88.6231 53.2204C88.6231 53.0694 88.6084 52.9505 88.6231 52.8094C88.6404 52.6312 88.6749 52.4802 88.7636 52.3663C88.8375 52.2698 88.9385 52.2227 89.0273 52.0965C89.111 51.9776 89.1529 51.9479 89.2909 51.9232C89.4831 51.8885 89.5841 51.8761 89.6778 51.839C89.7911 51.7944 89.9685 51.6781 90.0646 51.6731C90.1878 51.6682 90.3431 51.6905 90.4343 51.7127C90.5722 51.7474 90.7521 51.8638 90.8211 51.9851C90.932 52.1831 91.0503 52.3465 91.1365 52.5619C91.2178 52.7624 91.277 52.9654 91.346 53.1832C91.4076 53.3714 91.4864 53.5323 91.5579 53.7353C91.5899 53.8294 91.5924 53.9383 91.6293 54.0472C91.6466 54.1413 91.6835 54.223 91.6983 54.3319C91.7328 54.5547 91.8043 54.723 91.856 54.9558C91.9324 55.2949 92.0655 55.5895 92.2084 55.9411C92.2675 56.0871 92.2971 56.2257 92.3316 56.4015C92.3513 56.4956 92.3686 56.5797 92.4006 56.6713C92.4351 56.7654 92.4523 56.862 92.5238 56.9263C92.5755 56.857 92.5583 56.7605 92.5755 56.6639C92.5952 56.555 92.6273 56.4832 92.6273 56.3347C92.6273 56.253 92.5928 56.1589 92.5928 56.0624C92.5928 55.9311 92.6002 55.8569 92.61 55.7603C92.6273 55.6093 92.61 55.5004 92.6273 55.3766C92.6445 55.2528 92.6618 55.1439 92.6618 55.0325C92.679 54.7726 92.6963 54.525 92.7135 54.2775C92.748 53.7848 92.748 53.2649 92.6963 52.7748C92.6618 52.5718 92.6248 52.3267 92.748 52.1039C92.7998 52.0098 92.9057 51.9207 93.0117 51.9157C93.1349 51.9108 93.2753 51.9182 93.3985 51.9009C93.6277 51.8638 93.8174 51.8019 94.0663 51.7944C94.2486 51.787 94.3743 51.9405 94.3842 52.1286C94.3916 52.2648 94.325 52.396 94.325 52.4975C94.325 52.599 94.3472 52.7054 94.3472 52.8069C94.3472 52.9035 94.3127 53 94.2955 53.0966C94.2782 53.1931 94.2782 53.2897 94.2782 53.3986C94.2782 53.6041 94.2955 53.7799 94.3127 54.0002C94.3201 54.1042 94.3127 54.1958 94.3127 54.3146C94.3127 54.4111 94.2955 54.4928 94.2782 54.5894C94.2265 54.7552 94.224 54.9038 94.2067 55.1117C94.1994 55.1959 94.1944 55.238 94.1723 55.3444C94.155 55.4261 94.1008 55.4435 94.1008 55.5648C94.1008 55.6613 94.1353 55.7405 94.1353 55.8222C94.1353 55.9806 94.0762 56.0549 94.0762 56.1762C94.0762 56.3124 94.0983 56.4337 94.0983 56.5624C94.0983 56.753 94.0638 56.9338 94.0638 57.1244C94.0638 57.2209 94.0811 57.315 94.0638 57.4115C94.0491 57.4932 94.0293 57.5774 94.0293 57.6442C94.0121 57.8101 94.0318 57.9735 94.0466 58.1493C94.0638 58.3547 94.0983 58.5033 94.118 58.7063C94.1328 58.8697 94.1353 59.033 94.1525 59.2237C94.1624 59.3177 94.1698 59.4143 94.1698 59.5108C94.1698 59.5925 94.1525 59.6767 94.1353 59.7584C94.118 59.8401 94.118 59.9243 94.1008 60.0183C94.0934 60.0604 94.1082 60.1149 94.1008 60.1693C94.086 60.2832 93.9751 60.3525 93.8371 60.4392C93.7484 60.4837 93.6449 60.5011 93.539 60.5184C93.4503 60.5357 93.3813 60.5654 93.2581 60.5704C93.1521 60.5753 93.0807 60.5506 92.9427 60.5555C92.8293 60.5605 92.684 60.6001 92.5583 60.605C92.4129 60.61 92.3094 60.5605 92.2577 60.4862C92.1911 60.3897 92.1172 60.3402 92.0655 60.303C91.8733 60.1594 91.8092 59.9961 91.6959 59.798C91.5726 59.5851 91.5037 59.4217 91.4494 59.2063C91.4248 59.1098 91.378 58.991 91.3435 58.9241C91.3016 58.8449 91.2326 58.7805 91.203 58.6964C91.1316 58.4934 91.1168 58.3325 91.0798 58.1394C91.0453 57.9487 90.9911 57.7878 90.9221 57.6121C90.8408 57.4115 90.7817 57.3026 90.7472 57.1269C90.7299 57.0452 90.6954 56.9709 90.6585 56.8991C90.6092 56.8026 90.5525 56.753 90.518 56.6713C90.4663 56.5079 90.4466 56.3867 90.3948 56.2257C90.3652 56.1589 90.348 56.0549 90.3382 55.9856C90.3258 55.8915 90.3135 55.8049 90.2716 55.8049C90.2445 55.8049 90.2371 55.8668 90.2371 55.9559C90.2371 56.1044 90.2618 56.3297 90.2716 56.4758C90.2716 56.6392 90.2544 56.7902 90.2199 56.956C90.2026 57.107 90.2199 57.2581 90.2199 57.4214C90.2199 57.5848 90.1854 57.7383 90.1854 57.9017C90.1854 58.08 90.2371 58.2285 90.2199 58.3919C90.2026 58.7211 90.1681 59.0504 90.1681 59.3796C90.1509 59.694 90.0277 60.001 89.9932 60.303C89.9833 60.4045 89.9809 60.5605 89.9488 60.6991C89.9193 60.8229 89.8848 60.917 89.764 60.969C89.7147 60.9912 89.5866 61.0135 89.5004 61.0333C89.3624 61.0705 89.3106 61.0729 89.1702 61.0779Z" fill="#CC0000"/>
<path d="M101.646 60.1693C101.54 60.1743 101.422 60.1594 101.338 60.1446C101.202 60.1174 101.096 60.105 100.956 60.0951C100.813 60.0852 100.695 60.0059 100.584 59.949C100.387 59.8475 100.125 59.7658 100.005 59.6049C99.9481 59.5282 99.9284 59.4539 99.9284 59.3623C99.9284 59.2039 100.059 59.038 100.059 58.788C100.059 58.6741 100.049 58.4043 100.066 58.2879C100.14 57.8076 100.153 57.4784 100.214 56.9981C100.246 56.7506 100.263 56.503 100.268 56.2554C100.271 56.1366 100.278 56.0178 100.288 55.8989C100.296 55.8123 100.313 55.6984 100.313 55.6143C100.313 55.488 100.286 55.3345 100.286 55.2429C100.286 55.0771 100.308 54.9335 100.328 54.775C100.357 54.5374 100.389 54.0844 100.389 53.8591C100.389 53.7056 100.488 53.2971 100.488 53.1312C100.488 53.1015 100.475 53.0916 100.446 53.0941C100.419 53.0966 100.377 53.1065 100.315 53.1238C100.158 53.1659 100.158 53.1486 100.005 53.203C99.8668 53.2525 99.746 53.2624 99.6499 53.2649C99.507 53.2699 99.5242 53.3021 99.4134 53.307C99.3099 53.312 99.2704 53.2872 99.1891 53.2922C99.13 53.2946 99.0684 53.2996 99.0068 53.3021C98.9082 53.307 98.8097 53.2996 98.7283 53.255C98.6791 53.2278 98.652 53.1857 98.6101 53.156C98.5682 53.1263 98.4869 53.0793 98.4524 53.0446C98.3587 52.9505 98.2947 52.8218 98.2552 52.7129C98.2158 52.6039 98.1936 52.4925 98.1394 52.391C98.0951 52.3094 98.0138 52.2351 98.0138 52.1732C98.0138 52.1163 98.0606 52.0816 98.0556 52.0296C98.0532 51.9801 98.0014 51.9628 98.0014 51.9133C98.0014 51.7697 98.2848 51.7623 98.5362 51.7325C98.854 51.6929 99.3887 51.5692 99.5341 51.5543C99.852 51.5221 99.7017 51.5419 100.02 51.5122C100.369 51.48 100.724 51.4677 101.077 51.4479C101.399 51.4305 101.712 51.4231 102.038 51.3959C102.188 51.3835 102.535 51.381 102.683 51.3587C102.816 51.3389 102.947 51.329 103.105 51.3067C103.178 51.2968 103.275 51.2696 103.363 51.2647C103.469 51.2597 103.558 51.2968 103.605 51.3142C103.634 51.3241 103.664 51.3414 103.696 51.3463C103.723 51.3513 103.765 51.3414 103.79 51.3513C103.829 51.3662 103.854 51.4256 103.883 51.4503C103.925 51.4825 103.979 51.5048 104.021 51.537C104.066 51.5716 104.061 51.5964 104.083 51.636C104.11 51.6855 104.13 51.6979 104.196 51.7251C104.3 51.7697 104.43 51.8365 104.475 51.9331C104.514 52.0197 104.497 52.0865 104.531 52.1707C104.553 52.2277 104.61 52.2598 104.61 52.3168C104.61 52.3613 104.581 52.4158 104.566 52.4579C104.529 52.5495 104.472 52.6609 104.339 52.7055C104.282 52.7253 104.184 52.7178 104.12 52.7203C103.969 52.7253 103.841 52.7599 103.689 52.7673C103.546 52.7723 103.403 52.7673 103.262 52.7723C103.09 52.7772 102.9 52.8045 102.732 52.8416C102.543 52.8837 102.346 52.9134 102.346 53.0446C102.346 53.1585 102.36 53.2699 102.363 53.3813C102.363 53.4382 102.385 53.4853 102.402 53.5397C102.42 53.5967 102.405 53.6486 102.405 53.7056C102.405 53.7576 102.432 53.8021 102.432 53.8517C102.432 53.9234 102.41 53.9977 102.41 54.0472C102.412 54.1636 102.422 54.2329 102.454 54.3468C102.489 54.473 102.54 54.5077 102.54 54.5547C102.54 54.6265 102.491 54.6315 102.491 54.7651C102.491 54.8567 102.511 54.8889 102.491 54.9681C102.464 55.0647 102.471 55.1736 102.452 55.2726C102.427 55.3989 102.407 55.5276 102.373 55.6539C102.341 55.7702 102.274 55.8791 102.232 55.993C102.193 56.0995 102.213 56.1812 102.181 56.2901C102.151 56.3891 102.148 56.456 102.148 56.555C102.148 56.602 102.176 56.701 102.176 56.7481C102.176 56.7976 102.166 56.8421 102.166 56.9164C102.166 57.0427 102.217 57.1541 102.25 57.2779C102.277 57.3794 102.309 57.4734 102.309 57.5799C102.309 57.6542 102.274 57.7185 102.274 57.82C102.274 57.8868 102.316 57.9512 102.316 58.0304C102.316 58.1319 102.25 58.2384 102.25 58.3473C102.25 58.4612 102.272 58.5033 102.272 58.6419C102.272 58.7137 102.25 58.7756 102.252 58.8201C102.254 58.8746 102.286 58.9142 102.286 58.9637C102.286 59.0504 102.242 59.1444 102.242 59.2534C102.242 59.3796 102.151 59.4985 102.119 59.6247C102.107 59.6767 102.104 59.7386 102.08 59.7881C102.057 59.8302 102.008 59.845 101.988 59.8995C101.974 59.9441 101.983 59.9861 101.966 60.0307C101.912 60.1297 101.705 60.1669 101.646 60.1693Z" fill="#CC0000"/>
<path d="M109.928 60.2783C109.684 60.2882 109.351 60.1966 109.277 60.1743C108.942 60.0728 108.614 60.0159 108.466 59.7361C108.388 59.5876 108.425 59.439 108.425 59.2757C108.425 59.1791 108.42 59.085 108.42 58.9885C108.42 58.8375 108.415 58.684 108.415 58.5305C108.415 58.3374 108.422 58.1443 108.452 57.9537C108.474 57.8151 108.461 57.6839 108.476 57.5452C108.489 57.4165 108.526 57.2878 108.535 57.159C108.555 56.8818 108.587 56.602 108.609 56.3223C108.644 55.8841 108.688 55.4459 108.688 55.0102C108.688 54.8221 108.683 54.6909 108.668 54.53C108.644 54.2329 108.671 53.9482 108.686 53.6511C108.7 53.359 108.76 53.0619 108.76 52.7723C108.76 52.5124 108.747 52.2351 108.747 51.99C108.747 51.8761 108.75 51.8068 108.75 51.6484C108.75 51.6187 108.74 51.532 108.74 51.485C108.74 51.4132 108.765 51.3414 108.888 51.2671C109.031 51.1805 109.186 51.1533 109.356 51.1112C109.531 51.0691 109.703 51.0072 109.881 50.9725C110.048 50.9379 110.221 50.9255 110.391 50.9181C110.603 50.9106 110.797 50.8933 110.997 50.8859C111.707 50.8587 112.365 51.1161 112.914 51.4206C113.151 51.5518 113.36 51.7152 113.557 51.8811C113.663 51.9702 113.663 52.0965 113.737 52.2004C113.776 52.2549 113.818 52.2895 113.831 52.3564C113.848 52.448 113.833 52.5074 113.863 52.599C113.914 52.7574 113.942 52.9183 113.942 53.0817C113.942 53.1511 113.937 53.2229 113.924 53.2922C113.907 53.4085 113.86 53.5422 113.818 53.6561C113.774 53.7749 113.757 53.8739 113.675 53.9779C113.513 54.1883 113.464 54.4111 113.289 54.5993C113.197 54.6958 113.069 54.7577 112.944 54.8221C112.796 54.8939 112.692 55.0028 112.554 55.0795C112.448 55.139 112.283 55.1984 112.283 55.3147C112.283 55.4063 112.36 55.5029 112.416 55.5747C112.591 55.7876 112.66 56.0549 112.761 56.2975C112.811 56.4164 112.848 56.5302 112.875 56.6491C112.902 56.7679 113.005 56.8793 113.077 56.9907C113.225 57.216 113.35 57.4833 113.385 57.7408C113.404 57.8819 113.37 57.919 113.461 58.0403C113.486 58.0725 113.505 58.0973 113.52 58.1245C113.535 58.1517 113.545 58.1839 113.55 58.2285C113.562 58.3127 113.579 58.3622 113.619 58.4439C113.68 58.5751 113.705 58.7162 113.73 58.8548C113.752 58.9811 113.816 59.142 113.821 59.2707C113.831 59.548 113.491 59.6618 113.163 59.6742C112.865 59.6866 112.475 59.7237 112.296 59.5183C112.116 59.3153 112.042 59.0132 111.931 58.7805C111.805 58.5157 111.719 58.2359 111.576 57.9735C111.438 57.7185 111.369 57.4338 111.266 57.1665C111.172 56.9189 111.083 56.6689 111.019 56.4015C110.97 56.1911 110.874 55.9237 110.672 55.7727C110.618 55.8866 110.605 56.0005 110.605 56.1168C110.605 56.2208 110.62 56.3619 110.62 56.4807C110.62 56.6713 110.595 56.9833 110.544 57.2308C110.521 57.3298 110.502 57.4363 110.502 57.5403C110.502 57.6517 110.546 57.7507 110.546 57.8621C110.546 58.0082 110.48 58.1344 110.48 58.2929C110.48 58.4364 110.519 58.5924 110.519 58.7385C110.519 58.8424 110.46 58.9068 110.46 58.9811C110.46 59.0405 110.484 59.1222 110.482 59.194C110.477 59.3153 110.509 59.3598 110.509 59.4985C110.509 59.6099 110.46 59.6668 110.438 59.7213C110.415 59.7757 110.406 59.8178 110.401 59.8574C110.388 59.9292 110.393 59.9837 110.366 60.0505C110.339 60.1223 110.312 60.1471 110.218 60.1891C110.1 60.2436 110.026 60.2758 109.928 60.2783ZM110.834 54.4656C111.137 54.3591 111.409 54.1339 111.662 53.9705C111.943 53.7898 112.199 53.567 112.352 53.307C112.434 53.1684 112.517 52.9283 112.517 52.7649C112.517 52.3613 112.064 52.2524 111.66 52.2697C111.507 52.2747 111.3 52.3292 111.118 52.3366C110.997 52.3415 110.894 52.3316 110.805 52.3366C110.756 52.3391 110.669 52.3514 110.603 52.3539C110.507 52.3564 110.455 52.4133 110.455 52.4925C110.455 52.547 110.467 52.6238 110.472 52.6683C110.487 52.7946 110.492 52.9258 110.494 53.0545C110.504 53.3739 110.576 53.7947 110.576 53.9705C110.576 54.0423 110.563 54.1413 110.563 54.2329C110.563 54.369 110.59 54.4903 110.721 54.4903C110.753 54.4903 110.79 54.4829 110.834 54.4656Z" fill="#CC0000"/>
<path d="M119.626 59.6866C119.436 59.694 119.188 59.5207 119.005 59.444C118.776 59.3474 118.562 59.2905 118.32 59.2088C118.027 59.1098 118.034 58.8251 118.034 58.7038C118.034 58.5033 118.135 58.3597 118.135 58.0997C118.135 57.1194 118.36 56.1317 118.36 55.1464C118.36 54.6092 118.377 54.0695 118.392 53.5273C118.404 53.0743 118.493 52.6237 118.493 52.1682C118.493 51.9925 118.431 51.7474 118.431 51.5667C118.431 51.3538 118.493 51.1632 118.732 51.1087C118.939 51.0617 119.156 51.0666 119.397 51.0567C119.754 51.0418 120.085 50.9577 120.43 50.9032C120.701 50.8611 120.984 50.8364 121.257 50.8141C121.393 50.8017 121.511 50.7918 121.615 50.7869C121.822 50.7794 121.97 50.7968 122.093 50.8809C122.285 51.0121 122.487 51.0889 122.608 51.2721C122.716 51.4355 122.77 51.5394 122.778 51.683C122.78 51.7152 122.761 51.7994 122.761 51.839C122.761 51.8935 122.785 51.9454 122.785 51.9974C122.785 52.1212 122.573 52.188 122.359 52.2351C122.312 52.245 122.268 52.2499 122.223 52.2524C122.132 52.2549 122.043 52.2475 121.952 52.2524C121.79 52.2598 121.265 52.3811 120.989 52.391C120.848 52.396 120.708 52.3762 120.582 52.3811C120.375 52.3886 120.294 52.5099 120.294 52.6584C120.294 52.9035 120.319 53.208 120.319 53.4506C120.319 53.5348 120.316 53.6214 120.309 53.7081C120.292 53.8863 120.269 54.1017 120.262 54.2972C120.252 54.5374 120.368 54.5597 120.641 54.5498C120.74 54.5448 121.294 54.5225 121.558 54.4903C121.6 54.4854 121.639 54.4829 121.679 54.4804C121.804 54.4755 121.918 54.4879 122.051 54.4978C122.125 54.5027 122.226 54.4829 122.285 54.5176C122.332 54.5448 122.352 54.6092 122.393 54.6438C122.514 54.7503 122.625 54.8146 122.692 54.9557C122.765 55.1117 122.899 55.2726 122.899 55.4385C122.899 55.6935 122.544 55.8074 122.253 55.8618C122.048 55.9014 121.841 55.9089 121.639 55.9534C121.568 55.9707 121.474 55.9782 121.378 55.9831C121.233 55.9881 121.075 55.9831 120.964 55.9782C120.861 55.9732 120.73 55.9608 120.609 55.9658C120.385 55.9757 120.218 56.0623 120.218 56.2827C120.218 56.4015 120.237 56.5228 120.237 56.6416C120.237 56.8075 120.208 56.9734 120.176 57.1392C120.156 57.2457 120.075 57.5576 120.075 57.6838C120.075 57.8225 120.173 57.8794 120.304 57.8745C120.747 57.8571 121.391 57.6863 121.817 57.669C122.036 57.6591 122.379 57.7284 122.571 57.9215C122.704 58.0552 122.721 58.0973 122.753 58.179C122.795 58.2854 122.869 58.3869 122.918 58.4909C122.96 58.5775 122.987 58.6815 122.987 58.7434C122.987 58.8746 122.913 58.9885 122.704 59.0603C122.573 59.1048 122.43 59.1271 122.3 59.1717C122.147 59.2237 122.004 59.3029 121.844 59.34C121.787 59.3524 121.713 59.3598 121.634 59.3623C121.543 59.3648 121.442 59.3648 121.349 59.3697C121.257 59.3722 121.171 59.3796 121.107 59.3994C120.927 59.4514 120.816 59.5183 120.617 59.5306C120.442 59.5405 120.277 59.5381 120.104 59.5801C119.949 59.6173 119.791 59.6816 119.626 59.6866Z" fill="#CC0000"/>
<path fill-rule="evenodd" clip-rule="evenodd" d="M122.874 1.45337C123.697 1.73311 124.436 2.16634 125.082 2.76791C126.575 4.15671 127.124 5.99855 127.124 7.99635V25.0754C127.511 25.3205 127.869 25.6126 128.191 25.9468C129.86 27.6649 130 29.6157 130 31.8783C130 34.0197 129.857 35.864 128.421 37.5821C128.041 38.0376 127.605 38.4287 127.122 38.7506V41.0157C127.122 45.7119 124.338 47.9028 119.863 48.0761L115.344 48.2494C112.882 48.3435 109.79 47.3755 108.023 45.6104C107.515 45.1029 107.133 44.5509 106.852 43.9592C105.497 46.3234 103.275 47.9424 100.032 48.0687L82.4679 48.7445C81.1989 48.794 79.9126 48.6084 78.752 48.1033C75.6227 50.1185 72.0103 51.0641 68.2846 51.2077C67.2768 51.2473 66.2641 51.2251 65.2587 51.1434C59.7244 50.6928 54.4094 48.4029 50.9794 44.0855C50.4003 45.1945 49.772 46.2813 49.0648 47.2814C47.3843 49.6654 44.8389 51.1805 41.9091 51.2944L37.3382 51.4701C35.2782 51.5493 32.7279 50.6879 30.8873 49.3164C29.463 50.9131 27.5139 51.8489 25.2396 51.9355L9.31916 52.547C6.85015 52.6411 3.82671 51.6954 2.00822 49.9823C0.537161 48.596 0 46.769 0 44.791V11.8211C0 7.10266 2.74498 4.88206 7.25917 4.70877L25.6807 4.00075C25.6954 4.00075 25.7102 3.99827 25.725 3.99827L30.9636 3.79775C35.3965 3.62694 38.7575 5.85745 40.3493 9.6748C40.783 5.52572 43.629 3.31007 47.9609 3.1442C50.5629 3.04518 53.0418 3.5898 55.2866 4.83997C58.5959 2.88178 62.4595 2.12178 66.2715 1.97572C70.3619 1.81729 74.6321 2.17377 78.2518 4.24088C81.465 1.68113 85.9595 0.180922 89.9562 0.0249601C93.4848 -0.111197 97.3583 0.270042 100.436 2.15892C103.383 3.40909 105.337 5.50096 106.458 8.19688L107.116 7.19921C108.274 5.44155 109.452 3.42146 111.128 2.11683C112.818 0.797339 114.774 0.359162 116.876 0.277467L117.852 0.240335C119.678 0.166067 121.381 0.37154 122.874 1.45337Z" fill="white"/>
<path fill-rule="evenodd" clip-rule="evenodd" d="M105.85 12.0365L108.454 8.08299C110.94 4.3102 112.074 2.06732 116.943 1.87917L117.919 1.84204C119.451 1.78263 120.91 1.91631 122.132 2.90407C122.8 3.09469 123.426 3.41651 123.997 3.94629C125.158 5.02317 125.525 6.46149 125.525 7.99388V26.0533C126.08 26.2711 126.592 26.5979 127.048 27.0658C128.379 28.4373 128.401 30.1058 128.401 31.8759C128.401 33.5791 128.356 35.1585 127.196 36.5473C126.72 37.1167 126.151 37.5276 125.525 37.8049V41.0157C125.525 44.7935 123.463 46.3283 119.804 46.4694L115.285 46.6427C113.274 46.7195 110.603 45.9174 109.151 44.4692C108.062 43.3824 107.779 42.0134 107.779 40.5379V38.8818L106.791 38.9189C106.305 42.7462 104.406 46.2887 99.9678 46.4595L82.4038 47.1354C80.9377 47.1923 79.6465 46.8804 78.6436 46.2268C75.6522 48.4029 72.0596 49.4501 68.2206 49.5961C61.3581 49.861 54.1802 47.175 50.7625 40.8598C49.8952 42.7338 48.8849 44.744 47.7564 46.3457C46.3666 48.3187 44.2771 49.5862 41.845 49.6803L37.2742 49.8561C35.0787 49.9402 31.9961 48.6381 30.6458 46.8705C29.5862 48.8237 27.7529 50.2224 25.1755 50.3215L9.25509 50.9329C7.22223 51.0121 4.60782 50.2224 3.09981 48.8014C1.95894 47.7246 1.59672 46.3011 1.59672 44.7811V11.8211C1.59672 8.02358 3.61728 6.45654 7.31833 6.31543L25.7398 5.60741C25.7546 5.60741 25.7694 5.60493 25.7841 5.60493L31.0228 5.40441C35.399 5.23607 38.4027 7.71413 39.4081 11.9622L41.298 19.9361C41.367 19.3469 41.4286 18.7825 41.4803 18.2527C41.7267 15.7697 41.8771 13.2669 41.8869 10.774C41.9042 6.79569 44.1711 4.89939 48.0176 4.75085C50.6492 4.64935 53.0985 5.2732 55.3014 6.72885C58.0661 4.84988 61.6883 3.76062 66.3306 3.5799C70.3594 3.42394 74.4103 3.78537 77.7418 5.8005C77.9931 5.90943 78.242 6.02331 78.4859 6.14709C81.5364 3.31502 86.1985 1.7752 90.0154 1.62666C94.0096 1.47318 97.2869 2.06731 99.7017 3.58733C103.075 4.9786 105.209 7.68442 105.85 12.0365Z" fill="#CC0000"/>
<path fill-rule="evenodd" clip-rule="evenodd" d="M14.1931 28.4323C15.7849 28.5264 17.8917 28.5487 19.072 28.5016C22.8199 28.3581 23.3349 26.4296 23.3349 25.1893C23.3349 23.6421 22.9751 23.2435 21.127 23.3128L14.1931 23.5802V14.1383L22.6153 13.814C22.7854 13.8065 22.9455 13.7917 23.0983 13.7694C22.8716 12.9277 22.6498 12.0786 22.4552 11.2295C22.3443 10.7418 22.1915 10.1105 22.1915 9.61043C22.1915 9.03362 22.3024 8.58801 22.502 8.2439L6.89943 8.84548C4.48463 8.93955 4.48463 9.55844 4.48463 10.9002V43.8701C4.48463 45.5733 5.10066 45.806 6.94872 45.7367L22.8691 45.1252C25.592 45.0212 26.1045 42.0604 26.1045 40.6667C26.1045 39.4809 25.5919 39.4487 24.6162 39.4858L14.1906 39.8869V28.4323H14.1931Z" fill="white"/>
<path fill-rule="evenodd" clip-rule="evenodd" d="M52.4775 11.7543C52.4159 8.34788 51.8788 7.11752 47.6061 7.28338C45.3465 7.37003 44.7822 8.0112 44.7822 9.86789C44.7305 19.5697 42.6261 31.3114 39.9551 36.5745L33.8959 11.0091C33.2281 8.24886 32.6639 7.85771 30.6088 7.93693L25.3702 8.13745C23.7266 8.20182 23.2141 8.47909 23.2141 9.61291C23.2141 10.0783 23.4704 11.3062 24.2934 14.267L31.1756 39.5427C32.2548 43.422 32.7156 44.7464 34.9752 44.6598L39.546 44.484C40.9851 44.4296 42.0619 43.6126 42.7814 42.605C44.4249 40.2582 47.4459 33.8365 49.6808 26.9569C49.6586 26.2959 49.6488 25.6473 49.6488 25.0185C49.6463 20.5575 50.1859 15.5939 52.4775 11.7543Z" fill="white"/>
<path fill-rule="evenodd" clip-rule="evenodd" d="M81.1693 23.8426C81.1693 21.0328 80.9697 18.6463 80.5878 16.6238C78.4095 16.3589 77.1307 14.3883 77.1307 12.1875C77.1307 11.7642 77.175 11.3433 77.2637 10.9324C77.3524 10.5165 77.483 10.1179 77.6457 9.73669C74.9869 6.62488 70.9384 5.92181 65.9166 6.1149C57.5979 6.43426 50.664 9.64261 50.664 25.0185C50.664 40.2904 56.6221 44.7563 65.9166 44.3998C70.1623 44.2365 73.9446 42.813 76.6797 39.6244C76.7808 38.2257 77.5841 36.9459 78.4145 35.8591C78.7989 35.3565 79.2054 34.8664 79.6219 34.3812C80.6149 31.5738 81.1693 28.0956 81.1693 23.8426ZM71.207 27.4248C71.207 36.1438 70.0267 39.4413 65.9166 39.5997C61.9618 39.7507 60.6263 36.3988 60.6263 27.8332V21.8473C60.6263 13.9526 61.5503 11.0289 65.9166 10.8606C69.9232 10.7071 71.207 14.475 71.207 21.6467V27.4248Z" fill="white"/>
<path fill-rule="evenodd" clip-rule="evenodd" d="M100.438 13.2396C100.438 7.30566 98.3316 3.82746 89.6014 4.16414C83.9513 4.382 78.1483 7.80325 78.1483 12.19C78.1483 13.8932 79.1241 15.7128 81.2309 15.6311C82.8227 15.5692 83.2342 14.7275 85.4938 11.6998C86.8293 9.89513 87.7016 9.0361 89.0889 8.98163C90.4244 8.92965 90.9369 10.0981 90.9369 14.3809C90.9369 20.1589 89.4979 24.2907 82.5664 32.5542C80.1516 35.4333 77.6876 37.696 77.6876 39.9141C77.6876 41.5653 78.5598 41.9961 80.1023 41.9367L97.6663 41.2608C100.234 41.1618 101.313 38.6961 101.313 35.0322C101.313 34.9753 101.313 34.9208 101.313 34.8664L100.335 34.9035C98.5953 34.9703 97.3682 34.2896 97.0183 32.772L86.5755 33.1731C94.7883 26.2538 100.438 20.7209 100.438 13.2396Z" fill="#FFCA07"/>
<path fill-rule="evenodd" clip-rule="evenodd" d="M122.788 30.1256C122.788 28.061 122.788 27.3406 121.092 27.405L119.912 27.4495V6.24363C119.912 4.54043 119.296 4.30772 117.497 4.37704L116.521 4.41418C113.646 4.52558 113.338 5.10486 110.77 9.07323L98.8047 27.2317C97.9324 28.5561 97.9324 29.5364 97.9324 30.7222V31.8065C97.9324 33.4578 98.8565 33.938 100.296 33.8836L110.669 33.485V39.6245C110.669 41.2757 111.081 41.5183 112.981 41.444L117.5 41.2707C119.915 41.1767 119.915 40.5577 119.915 39.268V33.1285L120.994 33.0864C122.788 33.0146 122.788 32.0343 122.788 30.1256ZM103.528 28.0808L110.667 16.8169V27.806L103.528 28.0808Z" fill="#FFCA07"/>
</svg>
